<svg width="204" height="41" viewBox="0 0 204 41" fill="none" xmlns="http://www.w3.org/2000/svg">
<g filter="url(#filter0_d_5_5)">
<path d="M30.942 9.64C32.718 9.64 34.174 10.136 35.31 11.128C36.446 12.12 37.014 13.28 37.014 14.608C37.014 15.648 36.686 16.512 36.03 17.2C35.374 17.872 34.598 18.208 33.702 18.208C32.806 18.208 32.054 17.92 31.446 17.344C30.838 16.736 30.534 16.088 30.534 15.4C30.534 14.696 30.686 14.112 30.99 13.648C31.294 13.184 31.662 12.952 32.094 12.952C32.334 12.952 32.534 13.024 32.694 13.168C32.854 13.296 32.934 13.464 32.934 13.672C32.934 13.864 32.822 14.12 32.598 14.44C32.374 14.744 32.262 15.072 32.262 15.424C32.262 15.76 32.398 16.048 32.67 16.288C32.942 16.512 33.294 16.624 33.726 16.624C34.174 16.624 34.542 16.456 34.83 16.12C35.134 15.768 35.286 15.304 35.286 14.728C35.286 13.88 34.902 13.104 34.134 12.4C33.398 11.68 32.334 11.32 30.942 11.32C29.23 11.32 27.822 12.08 26.718 13.6C25.614 15.104 25.062 16.88 25.062 18.928C25.062 20.976 25.638 22.784 26.79 24.352C27.942 25.904 29.398 26.68 31.158 26.68C31.942 26.68 32.67 26.576 33.342 26.368C34.03 26.16 34.55 25.912 34.902 25.624C35.75 24.92 36.262 24.568 36.438 24.568C36.63 24.568 36.79 24.632 36.918 24.76C37.046 24.872 37.11 25.016 37.11 25.192C37.11 25.816 36.51 26.504 35.31 27.256C34.126 27.992 32.734 28.36 31.134 28.36C28.83 28.36 26.918 27.456 25.398 25.648C23.878 23.808 23.118 21.584 23.118 18.976C23.118 16.352 23.862 14.144 25.35 12.352C26.838 10.544 28.702 9.64 30.942 9.64ZM43.4346 22.024C43.4346 23.352 43.8026 24.48 44.5386 25.408C45.2746 26.336 46.1946 26.8 47.2986 26.8C48.4186 26.8 49.3626 26.336 50.1306 25.408C50.9146 24.464 51.3066 23.328 51.3066 22C51.3066 20.672 50.9306 19.544 50.1786 18.616C49.4426 17.672 48.5226 17.2 47.4186 17.2C46.3306 17.2 45.3866 17.672 44.5866 18.616C43.8186 19.56 43.4346 20.696 43.4346 22.024ZM43.3146 26.536C42.2586 25.304 41.7306 23.8 41.7306 22.024C41.7306 20.248 42.2666 18.744 43.3386 17.512C44.4106 16.264 45.7626 15.64 47.3946 15.64C49.0266 15.64 50.3706 16.256 51.4266 17.488C52.4826 18.704 53.0106 20.208 53.0106 22C53.0106 23.776 52.4666 25.28 51.3786 26.512C50.3066 27.744 48.9546 28.36 47.3226 28.36C45.7066 28.36 44.3706 27.752 43.3146 26.536ZM75.5591 20.44L75.4391 24.208V25.24C75.4711 25.896 75.6311 26.288 75.9191 26.416C76.0311 26.448 76.1591 26.48 76.3031 26.512C76.4471 26.528 76.5431 26.552 76.5911 26.584C76.6551 26.616 76.6871 26.68 76.6871 26.776C76.6871 27.192 76.5511 27.544 76.2791 27.832C76.0231 28.104 75.7191 28.24 75.3671 28.24C74.7751 28.24 74.3591 28.008 74.1191 27.544C73.8791 27.08 73.7591 26.368 73.7591 25.408L73.8551 20.992C73.8551 19.888 73.6391 19.008 73.2071 18.352C72.7751 17.68 72.1831 17.344 71.4311 17.344C70.6791 17.344 69.9431 17.8 69.2231 18.712C68.5031 19.624 67.9991 20.656 67.7111 21.808L67.7831 27.016C67.7831 27.832 67.4791 28.24 66.8711 28.24C66.1351 28.24 65.7671 27.696 65.7671 26.608C65.7671 25.504 65.9271 23.904 66.2471 21.808C66.2471 18.832 65.4311 17.344 63.7991 17.344C63.0471 17.344 62.3111 17.8 61.5911 18.712C60.8711 19.624 60.3671 20.656 60.0791 21.808L60.1511 27.016C60.1511 27.832 59.8471 28.24 59.2391 28.24C58.5031 28.24 58.1351 27.696 58.1351 26.608C58.1351 25.504 58.2951 23.904 58.6151 21.808C58.6151 21.136 58.5431 20.192 58.3991 18.976C58.2711 17.76 58.2071 17.024 58.2071 16.768C58.2071 16.512 58.2951 16.28 58.4711 16.072C58.6471 15.864 58.8711 15.76 59.1431 15.76C59.4151 15.76 59.6391 15.864 59.8151 16.072C59.9911 16.28 60.0791 16.504 60.0791 16.744C60.0791 16.984 60.0711 17.344 60.0551 17.824C60.0551 18.304 60.0551 18.632 60.0551 18.808C61.1271 16.776 62.4871 15.76 64.1351 15.76C65.0631 15.76 65.8231 16.032 66.4151 16.576C67.0231 17.12 67.4471 17.864 67.6871 18.808C68.7591 16.776 70.1191 15.76 71.7671 15.76C72.9831 15.76 73.9111 16.216 74.5511 17.128C75.2231 18.04 75.5591 19.144 75.5591 20.44ZM81.2248 15.952L82.4248 16V13.96C82.4248 12.552 82.6968 11.504 83.2408 10.816C83.8008 10.112 84.4728 9.76 85.2568 9.76C86.0408 9.76 86.6888 9.904 87.2008 10.192C87.7288 10.48 87.9928 10.8 87.9928 11.152C87.9928 11.68 87.7688 11.944 87.3208 11.944C87.2088 11.944 86.9368 11.848 86.5048 11.656C86.0888 11.464 85.7608 11.368 85.5208 11.368C84.5288 11.368 84.0328 12.304 84.0328 14.176V16L86.3608 15.952C86.6168 15.952 86.8328 16.024 87.0088 16.168C87.1848 16.296 87.2728 16.48 87.2728 16.72C87.2728 17.2 86.9688 17.44 86.3608 17.44L84.0328 17.392L84.1048 26.008C84.1048 27.592 83.8088 28.808 83.2168 29.656C82.6408 30.52 82.0408 30.952 81.4168 30.952C80.8088 30.952 80.5048 30.8 80.5048 30.496C80.5048 30.368 80.5608 30.24 80.6728 30.112C80.8008 30 80.9688 29.848 81.1768 29.656C81.3848 29.464 81.5608 29.264 81.7048 29.056C82.1688 28.4 82.4248 27.464 82.4728 26.248C82.5208 25.032 82.5448 23.608 82.5448 21.976C82.5448 20.344 82.5128 18.816 82.4488 17.392L81.2248 17.44C80.6168 17.44 80.3128 17.2 80.3128 16.72C80.3128 16.48 80.4008 16.296 80.5768 16.168C80.7528 16.024 80.9688 15.952 81.2248 15.952ZM100.14 22.192L100.068 16.984C100.068 16.168 100.372 15.76 100.98 15.76C101.716 15.76 102.084 16.36 102.084 17.56C102.084 18.504 101.916 20.048 101.58 22.192C101.772 24.144 101.868 25.6 101.868 26.56C101.868 28.656 101.348 30.336 100.308 31.6C99.2844 32.88 97.8524 33.52 96.0124 33.52C95.0524 33.52 94.1244 33.312 93.2284 32.896C92.3324 32.496 91.8844 32.088 91.8844 31.672C91.8844 31.272 92.0684 31.072 92.4364 31.072C92.5964 31.072 93.0364 31.216 93.7564 31.504C94.4764 31.808 95.2284 31.96 96.0124 31.96C97.3404 31.96 98.3964 31.48 99.1804 30.52C99.9804 29.576 100.38 28.336 100.38 26.8C100.38 26.24 100.356 25.696 100.308 25.168C99.1244 27.216 97.6364 28.24 95.8444 28.24C94.5644 28.24 93.5724 27.768 92.8684 26.824C92.1644 25.848 91.8124 24.68 91.8124 23.32L91.9564 19.696C91.9564 19.2 91.8924 18.608 91.7644 17.92C91.6364 17.216 91.5724 16.776 91.5724 16.6C91.5724 16.424 91.6684 16.24 91.8604 16.048C92.0684 15.856 92.3164 15.76 92.6044 15.76C93.3404 15.76 93.7084 16.416 93.7084 17.728L93.5164 23.008C93.5164 24.112 93.7484 25 94.2124 25.672C94.6924 26.344 95.3404 26.68 96.1564 26.68C96.9724 26.68 97.7644 26.224 98.5324 25.312C99.2844 24.384 99.8204 23.344 100.14 22.192Z" fill="#222222"/>
<path d="M118.732 24.04L118.852 20.92C117.796 20.872 116.972 20.624 116.38 20.176C115.804 19.712 115.516 19.176 115.516 18.568C115.516 17.96 115.804 17.432 116.38 16.984C116.972 16.536 117.796 16.232 118.852 16.072C118.708 13.624 118.636 12.232 118.636 11.896C118.636 10.392 120.092 9.64 123.004 9.64C125.052 9.64 126.636 10.064 127.756 10.912C128.892 11.744 129.46 12.784 129.46 14.032C129.46 15.28 128.836 16.44 127.588 17.512C129.716 18.68 130.78 20.232 130.78 22.168C130.78 23.432 130.388 24.552 129.604 25.528C128.82 26.488 127.804 27.2 126.556 27.664C125.308 28.128 124.052 28.36 122.788 28.36C121.38 28.36 120.092 28.192 118.924 27.856C117.756 27.504 116.86 27.096 116.236 26.632C115.612 26.168 115.3 25.784 115.3 25.48C115.3 25.16 115.38 24.92 115.54 24.76C115.7 24.584 115.892 24.496 116.116 24.496C116.116 24.496 116.148 24.496 116.212 24.496C116.292 24.496 116.508 24.608 116.86 24.832C117.228 25.04 117.636 25.288 118.084 25.576C118.548 25.864 119.148 26.12 119.884 26.344C120.636 26.568 121.38 26.68 122.116 26.68C122.164 26.68 122.212 26.68 122.26 26.68C124.164 26.68 125.74 26.264 126.988 25.432C128.236 24.6 128.86 23.528 128.86 22.216C128.86 21.464 128.636 20.768 128.188 20.128C127.74 19.488 127.132 18.976 126.364 18.592C124.716 19.808 122.788 20.56 120.58 20.848L120.676 23.92C120.676 23.984 120.676 24.04 120.676 24.088C120.676 24.504 120.532 24.8 120.244 24.976C120.068 25.088 119.892 25.144 119.716 25.144L119.188 24.976C118.884 24.784 118.732 24.472 118.732 24.04ZM120.532 11.872C120.532 12.432 120.548 13.784 120.58 15.928C122.516 15.928 124.348 16.232 126.076 16.84C127.148 16.024 127.684 15.128 127.684 14.152C127.684 13.176 127.284 12.464 126.484 12.016C125.684 11.552 124.684 11.32 123.484 11.32C122.3 11.32 121.316 11.504 120.532 11.872ZM120.532 17.56V19.216C121.236 19.184 122.012 19.048 122.86 18.808C123.724 18.552 124.396 18.264 124.876 17.944C123.996 17.656 122.772 17.512 121.204 17.512C120.916 17.512 120.692 17.528 120.532 17.56ZM118.876 19.312V17.68C117.74 17.808 117.172 18.072 117.172 18.472C117.172 19 117.74 19.28 118.876 19.312ZM145.664 22.192C145.664 23.36 145.744 24.336 145.904 25.12C146.08 25.888 146.296 26.32 146.552 26.416C146.648 26.464 146.76 26.496 146.888 26.512C147.032 26.528 147.128 26.552 147.176 26.584C147.24 26.616 147.272 26.68 147.272 26.776C147.272 27.224 147.152 27.584 146.912 27.856C146.672 28.112 146.32 28.24 145.856 28.24C145.408 28.24 145.056 27.952 144.8 27.376C144.544 26.784 144.416 26.016 144.416 25.072C143.984 26 143.384 26.76 142.616 27.352C141.848 27.944 140.976 28.24 140 28.24C139.04 28.24 138.216 27.92 137.528 27.28C136.248 26.096 135.608 24.424 135.608 22.264C135.608 20.52 136.112 19 137.12 17.704C138.128 16.408 139.424 15.76 141.008 15.76C142.208 15.76 143.248 16.168 144.128 16.984C144.128 16.168 144.432 15.76 145.04 15.76C145.776 15.76 146.144 16.312 146.144 17.416C146.144 18.504 145.984 20.096 145.664 22.192ZM144.272 22.408L144.152 18.712C143.208 17.784 142.208 17.32 141.152 17.32C140.096 17.32 139.192 17.792 138.44 18.736C137.688 19.68 137.312 20.824 137.312 22.168C137.312 23.496 137.56 24.584 138.056 25.432C138.552 26.264 139.24 26.68 140.12 26.68C141 26.68 141.808 26.288 142.544 25.504C143.296 24.72 143.872 23.688 144.272 22.408ZM162.687 21.736C162.687 23.48 162.183 25 161.175 26.296C160.167 27.592 158.871 28.24 157.287 28.24C156.103 28.24 155.063 27.832 154.167 27.016C154.167 27.832 153.863 28.24 153.255 28.24C152.519 28.24 152.151 27.696 152.151 26.608C152.151 25.504 152.311 23.904 152.631 21.808C152.631 20.72 152.559 18.672 152.415 15.664C152.271 12.64 152.199 11.008 152.199 10.768C152.199 10.528 152.279 10.296 152.439 10.072C152.615 9.848 152.791 9.736 152.967 9.736C153.159 9.736 153.335 9.776 153.495 9.856C153.879 10.032 154.071 10.344 154.071 10.792C154.071 10.856 154.071 10.912 154.071 10.96V18.544C154.503 17.712 155.087 17.04 155.823 16.528C156.559 16.016 157.391 15.76 158.319 15.76C159.247 15.76 160.055 16.08 160.743 16.72C162.039 17.904 162.687 19.576 162.687 21.736ZM154.023 21.592L154.143 25.288C155.087 26.216 156.087 26.68 157.143 26.68C158.199 26.68 159.103 26.208 159.855 25.264C160.607 24.32 160.983 23.184 160.983 21.856C160.983 20.512 160.735 19.424 160.239 18.592C159.743 17.744 159.055 17.32 158.175 17.32C157.295 17.32 156.479 17.712 155.727 18.496C154.991 19.28 154.423 20.312 154.023 21.592ZM176.265 22.192L176.193 16.984C176.193 16.168 176.497 15.76 177.105 15.76C177.841 15.76 178.209 16.36 178.209 17.56C178.209 18.504 178.041 20.048 177.705 22.192C177.897 24.144 177.993 25.6 177.993 26.56C177.993 28.656 177.473 30.336 176.433 31.6C175.409 32.88 173.977 33.52 172.137 33.52C171.177 33.52 170.249 33.312 169.353 32.896C168.457 32.496 168.009 32.088 168.009 31.672C168.009 31.272 168.193 31.072 168.561 31.072C168.721 31.072 169.161 31.216 169.881 31.504C170.601 31.808 171.353 31.96 172.137 31.96C173.465 31.96 174.521 31.48 175.305 30.52C176.105 29.576 176.505 28.336 176.505 26.8C176.505 26.24 176.481 25.696 176.433 25.168C175.249 27.216 173.761 28.24 171.969 28.24C170.689 28.24 169.697 27.768 168.993 26.824C168.289 25.848 167.937 24.68 167.937 23.32L168.081 19.696C168.081 19.2 168.017 18.608 167.889 17.92C167.761 17.216 167.697 16.776 167.697 16.6C167.697 16.424 167.793 16.24 167.985 16.048C168.193 15.856 168.441 15.76 168.729 15.76C169.465 15.76 169.833 16.416 169.833 17.728L169.641 23.008C169.641 24.112 169.873 25 170.337 25.672C170.817 26.344 171.465 26.68 172.281 26.68C173.097 26.68 173.889 26.224 174.657 25.312C175.409 24.384 175.945 23.344 176.265 22.192Z" fill="#DA127D"/>
</g>
<defs>
<filter id="filter0_d_5_5" x="19.6666" y="9.64" width="161.994" height="30.7829" filterUnits="userSpaceOnUse" color-interpolation-filters="sRGB">
<feFlood flood-opacity="0" result="BackgroundImageFix"/>
<feColorMatrix in="SourceAlpha" type="matrix" values="0 0 0 0 0 0 0 0 0 0 0 0 0 0 0 0 0 0 127 0" result="hardAlpha"/>
<feOffset dy="3.45143"/>
<feGaussianBlur stdDeviation="1.72571"/>
<feColorMatrix type="matrix" values="0 0 0 0 0 0 0 0 0 0 0 0 0 0 0 0 0 0 0.25 0"/>
<feBlend mode="normal" in2="BackgroundImageFix" result="effect1_dropShadow_5_5"/>
<feBlend mode="normal" in="SourceGraphic" in2="effect1_dropShadow_5_5" result="shape"/>
</filter>
</defs>
</svg>
