<svg width="203" height="44" viewBox="0 0 203 44" fill="none" xmlns="http://www.w3.org/2000/svg">
<g filter="url(#filter0_d_5_5)">
<path d="M30.442 12.64C32.218 12.64 33.674 13.136 34.81 14.128C35.946 15.12 36.514 16.28 36.514 17.608C36.514 18.648 36.186 19.512 35.53 20.2C34.874 20.872 34.098 21.208 33.202 21.208C32.306 21.208 31.554 20.92 30.946 20.344C30.338 19.736 30.034 19.088 30.034 18.4C30.034 17.696 30.186 17.112 30.49 16.648C30.794 16.184 31.162 15.952 31.594 15.952C31.834 15.952 32.034 16.024 32.194 16.168C32.354 16.296 32.434 16.464 32.434 16.672C32.434 16.864 32.322 17.12 32.098 17.44C31.874 17.744 31.762 18.072 31.762 18.424C31.762 18.76 31.898 19.048 32.17 19.288C32.442 19.512 32.794 19.624 33.226 19.624C33.674 19.624 34.042 19.456 34.33 19.12C34.634 18.768 34.786 18.304 34.786 17.728C34.786 16.88 34.402 16.104 33.634 15.4C32.898 14.68 31.834 14.32 30.442 14.32C28.73 14.32 27.322 15.08 26.218 16.6C25.114 18.104 24.562 19.88 24.562 21.928C24.562 23.976 25.138 25.784 26.29 27.352C27.442 28.904 28.898 29.68 30.658 29.68C31.442 29.68 32.17 29.576 32.842 29.368C33.53 29.16 34.05 28.912 34.402 28.624C35.25 27.92 35.762 27.568 35.938 27.568C36.13 27.568 36.29 27.632 36.418 27.76C36.546 27.872 36.61 28.016 36.61 28.192C36.61 28.816 36.01 29.504 34.81 30.256C33.626 30.992 32.234 31.36 30.634 31.36C28.33 31.36 26.418 30.456 24.898 28.648C23.378 26.808 22.618 24.584 22.618 21.976C22.618 19.352 23.362 17.144 24.85 15.352C26.338 13.544 28.202 12.64 30.442 12.64ZM42.9346 25.024C42.9346 26.352 43.3026 27.48 44.0386 28.408C44.7746 29.336 45.6946 29.8 46.7986 29.8C47.9186 29.8 48.8626 29.336 49.6306 28.408C50.4146 27.464 50.8066 26.328 50.8066 25C50.8066 23.672 50.4306 22.544 49.6786 21.616C48.9426 20.672 48.0226 20.2 46.9186 20.2C45.8306 20.2 44.8866 20.672 44.0866 21.616C43.3186 22.56 42.9346 23.696 42.9346 25.024ZM42.8146 29.536C41.7586 28.304 41.2306 26.8 41.2306 25.024C41.2306 23.248 41.7666 21.744 42.8386 20.512C43.9106 19.264 45.2626 18.64 46.8946 18.64C48.5266 18.64 49.8706 19.256 50.9266 20.488C51.9826 21.704 52.5106 23.208 52.5106 25C52.5106 26.776 51.9666 28.28 50.8786 29.512C49.8066 30.744 48.4546 31.36 46.8226 31.36C45.2066 31.36 43.8706 30.752 42.8146 29.536ZM75.0591 23.44L74.9391 27.208V28.24C74.9711 28.896 75.1311 29.288 75.4191 29.416C75.5311 29.448 75.6591 29.48 75.8031 29.512C75.9471 29.528 76.0431 29.552 76.0911 29.584C76.1551 29.616 76.1871 29.68 76.1871 29.776C76.1871 30.192 76.0511 30.544 75.7791 30.832C75.5231 31.104 75.2191 31.24 74.8671 31.24C74.2751 31.24 73.8591 31.008 73.6191 30.544C73.3791 30.08 73.2591 29.368 73.2591 28.408L73.3551 23.992C73.3551 22.888 73.1391 22.008 72.7071 21.352C72.2751 20.68 71.6831 20.344 70.9311 20.344C70.1791 20.344 69.4431 20.8 68.7231 21.712C68.0031 22.624 67.4991 23.656 67.2111 24.808L67.2831 30.016C67.2831 30.832 66.9791 31.24 66.3711 31.24C65.6351 31.24 65.2671 30.696 65.2671 29.608C65.2671 28.504 65.4271 26.904 65.7471 24.808C65.7471 21.832 64.9311 20.344 63.2991 20.344C62.5471 20.344 61.8111 20.8 61.0911 21.712C60.3711 22.624 59.8671 23.656 59.5791 24.808L59.6511 30.016C59.6511 30.832 59.3471 31.24 58.7391 31.24C58.0031 31.24 57.6351 30.696 57.6351 29.608C57.6351 28.504 57.7951 26.904 58.1151 24.808C58.1151 24.136 58.0431 23.192 57.8991 21.976C57.7711 20.76 57.7071 20.024 57.7071 19.768C57.7071 19.512 57.7951 19.28 57.9711 19.072C58.1471 18.864 58.3711 18.76 58.6431 18.76C58.9151 18.76 59.1391 18.864 59.3151 19.072C59.4911 19.28 59.5791 19.504 59.5791 19.744C59.5791 19.984 59.5711 20.344 59.5551 20.824C59.5551 21.304 59.5551 21.632 59.5551 21.808C60.6271 19.776 61.9871 18.76 63.6351 18.76C64.5631 18.76 65.3231 19.032 65.9151 19.576C66.5231 20.12 66.9471 20.864 67.1871 21.808C68.2591 19.776 69.6191 18.76 71.2671 18.76C72.4831 18.76 73.4111 19.216 74.0511 20.128C74.7231 21.04 75.0591 22.144 75.0591 23.44ZM80.7248 18.952L81.9248 19V16.96C81.9248 15.552 82.1968 14.504 82.7408 13.816C83.3008 13.112 83.9728 12.76 84.7568 12.76C85.5408 12.76 86.1888 12.904 86.7008 13.192C87.2288 13.48 87.4928 13.8 87.4928 14.152C87.4928 14.68 87.2688 14.944 86.8208 14.944C86.7088 14.944 86.4368 14.848 86.0048 14.656C85.5888 14.464 85.2608 14.368 85.0208 14.368C84.0288 14.368 83.5328 15.304 83.5328 17.176V19L85.8608 18.952C86.1168 18.952 86.3328 19.024 86.5088 19.168C86.6848 19.296 86.7728 19.48 86.7728 19.72C86.7728 20.2 86.4688 20.44 85.8608 20.44L83.5328 20.392L83.6048 29.008C83.6048 30.592 83.3088 31.808 82.7168 32.656C82.1408 33.52 81.5408 33.952 80.9168 33.952C80.3088 33.952 80.0048 33.8 80.0048 33.496C80.0048 33.368 80.0608 33.24 80.1728 33.112C80.3008 33 80.4688 32.848 80.6768 32.656C80.8848 32.464 81.0608 32.264 81.2048 32.056C81.6688 31.4 81.9248 30.464 81.9728 29.248C82.0208 28.032 82.0448 26.608 82.0448 24.976C82.0448 23.344 82.0128 21.816 81.9488 20.392L80.7248 20.44C80.1168 20.44 79.8128 20.2 79.8128 19.72C79.8128 19.48 79.9008 19.296 80.0768 19.168C80.2528 19.024 80.4688 18.952 80.7248 18.952ZM99.6404 25.192L99.5684 19.984C99.5684 19.168 99.8724 18.76 100.48 18.76C101.216 18.76 101.584 19.36 101.584 20.56C101.584 21.504 101.416 23.048 101.08 25.192C101.272 27.144 101.368 28.6 101.368 29.56C101.368 31.656 100.848 33.336 99.8084 34.6C98.7844 35.88 97.3524 36.52 95.5124 36.52C94.5524 36.52 93.6244 36.312 92.7284 35.896C91.8324 35.496 91.3844 35.088 91.3844 34.672C91.3844 34.272 91.5684 34.072 91.9364 34.072C92.0964 34.072 92.5364 34.216 93.2564 34.504C93.9764 34.808 94.7284 34.96 95.5124 34.96C96.8404 34.96 97.8964 34.48 98.6804 33.52C99.4804 32.576 99.8804 31.336 99.8804 29.8C99.8804 29.24 99.8564 28.696 99.8084 28.168C98.6244 30.216 97.1364 31.24 95.3444 31.24C94.0644 31.24 93.0724 30.768 92.3684 29.824C91.6644 28.848 91.3124 27.68 91.3124 26.32L91.4564 22.696C91.4564 22.2 91.3924 21.608 91.2644 20.92C91.1364 20.216 91.0724 19.776 91.0724 19.6C91.0724 19.424 91.1684 19.24 91.3604 19.048C91.5684 18.856 91.8164 18.76 92.1044 18.76C92.8404 18.76 93.2084 19.416 93.2084 20.728L93.0164 26.008C93.0164 27.112 93.2484 28 93.7124 28.672C94.1924 29.344 94.8404 29.68 95.6564 29.68C96.4724 29.68 97.2644 29.224 98.0324 28.312C98.7844 27.384 99.3204 26.344 99.6404 25.192Z" fill="#222222"/>
<path d="M118.232 27.04L118.352 23.92C117.296 23.872 116.472 23.624 115.88 23.176C115.304 22.712 115.016 22.176 115.016 21.568C115.016 20.96 115.304 20.432 115.88 19.984C116.472 19.536 117.296 19.232 118.352 19.072C118.208 16.624 118.136 15.232 118.136 14.896C118.136 13.392 119.592 12.64 122.504 12.64C124.552 12.64 126.136 13.064 127.256 13.912C128.392 14.744 128.96 15.784 128.96 17.032C128.96 18.28 128.336 19.44 127.088 20.512C129.216 21.68 130.28 23.232 130.28 25.168C130.28 26.432 129.888 27.552 129.104 28.528C128.32 29.488 127.304 30.2 126.056 30.664C124.808 31.128 123.552 31.36 122.288 31.36C120.88 31.36 119.592 31.192 118.424 30.856C117.256 30.504 116.36 30.096 115.736 29.632C115.112 29.168 114.8 28.784 114.8 28.48C114.8 28.16 114.88 27.92 115.04 27.76C115.2 27.584 115.392 27.496 115.616 27.496C115.616 27.496 115.648 27.496 115.712 27.496C115.792 27.496 116.008 27.608 116.36 27.832C116.728 28.04 117.136 28.288 117.584 28.576C118.048 28.864 118.648 29.12 119.384 29.344C120.136 29.568 120.88 29.68 121.616 29.68C121.664 29.68 121.712 29.68 121.76 29.68C123.664 29.68 125.24 29.264 126.488 28.432C127.736 27.6 128.36 26.528 128.36 25.216C128.36 24.464 128.136 23.768 127.688 23.128C127.24 22.488 126.632 21.976 125.864 21.592C124.216 22.808 122.288 23.56 120.08 23.848L120.176 26.92C120.176 26.984 120.176 27.04 120.176 27.088C120.176 27.504 120.032 27.8 119.744 27.976C119.568 28.088 119.392 28.144 119.216 28.144L118.688 27.976C118.384 27.784 118.232 27.472 118.232 27.04ZM120.032 14.872C120.032 15.432 120.048 16.784 120.08 18.928C122.016 18.928 123.848 19.232 125.576 19.84C126.648 19.024 127.184 18.128 127.184 17.152C127.184 16.176 126.784 15.464 125.984 15.016C125.184 14.552 124.184 14.32 122.984 14.32C121.8 14.32 120.816 14.504 120.032 14.872ZM120.032 20.56V22.216C120.736 22.184 121.512 22.048 122.36 21.808C123.224 21.552 123.896 21.264 124.376 20.944C123.496 20.656 122.272 20.512 120.704 20.512C120.416 20.512 120.192 20.528 120.032 20.56ZM118.376 22.312V20.68C117.24 20.808 116.672 21.072 116.672 21.472C116.672 22 117.24 22.28 118.376 22.312ZM145.164 25.192C145.164 26.36 145.244 27.336 145.404 28.12C145.58 28.888 145.796 29.32 146.052 29.416C146.148 29.464 146.26 29.496 146.388 29.512C146.532 29.528 146.628 29.552 146.676 29.584C146.74 29.616 146.772 29.68 146.772 29.776C146.772 30.224 146.652 30.584 146.412 30.856C146.172 31.112 145.82 31.24 145.356 31.24C144.908 31.24 144.556 30.952 144.3 30.376C144.044 29.784 143.916 29.016 143.916 28.072C143.484 29 142.884 29.76 142.116 30.352C141.348 30.944 140.476 31.24 139.5 31.24C138.54 31.24 137.716 30.92 137.028 30.28C135.748 29.096 135.108 27.424 135.108 25.264C135.108 23.52 135.612 22 136.62 20.704C137.628 19.408 138.924 18.76 140.508 18.76C141.708 18.76 142.748 19.168 143.628 19.984C143.628 19.168 143.932 18.76 144.54 18.76C145.276 18.76 145.644 19.312 145.644 20.416C145.644 21.504 145.484 23.096 145.164 25.192ZM143.772 25.408L143.652 21.712C142.708 20.784 141.708 20.32 140.652 20.32C139.596 20.32 138.692 20.792 137.94 21.736C137.188 22.68 136.812 23.824 136.812 25.168C136.812 26.496 137.06 27.584 137.556 28.432C138.052 29.264 138.74 29.68 139.62 29.68C140.5 29.68 141.308 29.288 142.044 28.504C142.796 27.72 143.372 26.688 143.772 25.408ZM162.187 24.736C162.187 26.48 161.683 28 160.675 29.296C159.667 30.592 158.371 31.24 156.787 31.24C155.603 31.24 154.563 30.832 153.667 30.016C153.667 30.832 153.363 31.24 152.755 31.24C152.019 31.24 151.651 30.696 151.651 29.608C151.651 28.504 151.811 26.904 152.131 24.808C152.131 23.72 152.059 21.672 151.915 18.664C151.771 15.64 151.699 14.008 151.699 13.768C151.699 13.528 151.779 13.296 151.939 13.072C152.115 12.848 152.291 12.736 152.467 12.736C152.659 12.736 152.835 12.776 152.995 12.856C153.379 13.032 153.571 13.344 153.571 13.792C153.571 13.856 153.571 13.912 153.571 13.96V21.544C154.003 20.712 154.587 20.04 155.323 19.528C156.059 19.016 156.891 18.76 157.819 18.76C158.747 18.76 159.555 19.08 160.243 19.72C161.539 20.904 162.187 22.576 162.187 24.736ZM153.523 24.592L153.643 28.288C154.587 29.216 155.587 29.68 156.643 29.68C157.699 29.68 158.603 29.208 159.355 28.264C160.107 27.32 160.483 26.184 160.483 24.856C160.483 23.512 160.235 22.424 159.739 21.592C159.243 20.744 158.555 20.32 157.675 20.32C156.795 20.32 155.979 20.712 155.227 21.496C154.491 22.28 153.923 23.312 153.523 24.592ZM175.765 25.192L175.693 19.984C175.693 19.168 175.997 18.76 176.605 18.76C177.341 18.76 177.709 19.36 177.709 20.56C177.709 21.504 177.541 23.048 177.205 25.192C177.397 27.144 177.493 28.6 177.493 29.56C177.493 31.656 176.973 33.336 175.933 34.6C174.909 35.88 173.477 36.52 171.637 36.52C170.677 36.52 169.749 36.312 168.853 35.896C167.957 35.496 167.509 35.088 167.509 34.672C167.509 34.272 167.693 34.072 168.061 34.072C168.221 34.072 168.661 34.216 169.381 34.504C170.101 34.808 170.853 34.96 171.637 34.96C172.965 34.96 174.021 34.48 174.805 33.52C175.605 32.576 176.005 31.336 176.005 29.8C176.005 29.24 175.981 28.696 175.933 28.168C174.749 30.216 173.261 31.24 171.469 31.24C170.189 31.24 169.197 30.768 168.493 29.824C167.789 28.848 167.437 27.68 167.437 26.32L167.581 22.696C167.581 22.2 167.517 21.608 167.389 20.92C167.261 20.216 167.197 19.776 167.197 19.6C167.197 19.424 167.293 19.24 167.485 19.048C167.693 18.856 167.941 18.76 168.229 18.76C168.965 18.76 169.333 19.416 169.333 20.728L169.141 26.008C169.141 27.112 169.373 28 169.837 28.672C170.317 29.344 170.965 29.68 171.781 29.68C172.597 29.68 173.389 29.224 174.157 28.312C174.909 27.384 175.445 26.344 175.765 25.192Z" fill="#DA127D"/>
</g>
<rect x="0.5" y="-0.5" width="202" height="36" transform="matrix(1 0 0 -1 0 36)" stroke="black"/>
<rect x="0.5" y="-0.5" width="202" height="36" transform="matrix(1 0 0 -1 0 36)" stroke="black" stroke-opacity="0.2"/>
<defs>
<filter id="filter0_d_5_5" x="19.1666" y="12.64" width="161.994" height="30.7829" filterUnits="userSpaceOnUse" color-interpolation-filters="sRGB">
<feFlood flood-opacity="0" result="BackgroundImageFix"/>
<feColorMatrix in="SourceAlpha" type="matrix" values="0 0 0 0 0 0 0 0 0 0 0 0 0 0 0 0 0 0 127 0" result="hardAlpha"/>
<feOffset dy="3.45143"/>
<feGaussianBlur stdDeviation="1.72571"/>
<feColorMatrix type="matrix" values="0 0 0 0 0 0 0 0 0 0 0 0 0 0 0 0 0 0 0.25 0"/>
<feBlend mode="normal" in2="BackgroundImageFix" result="effect1_dropShadow_5_5"/>
<feBlend mode="normal" in="SourceGraphic" in2="effect1_dropShadow_5_5" result="shape"/>
</filter>
</defs>
</svg>
